<svg width="613" height="301" viewBox="0 0 613 301" fill="none" xmlns="http://www.w3.org/2000/svg">
<path d="M191.409 300.695C163.74 300.695 138.946 294.227 117.027 281.291C95.1077 267.996 77.68 250.029 64.744 227.391C52.1673 204.753 45.879 179.24 45.879 150.853C45.879 122.106 52.347 96.414 65.283 73.776C78.5783 51.138 96.545 33.351 119.183 20.415C141.821 7.11964 167.334 0.471975 195.721 0.471975C224.108 0.471975 249.441 7.11964 271.72 20.415C294.358 33.351 312.145 51.138 325.081 73.776C338.376 96.414 345.204 122.106 345.563 150.853L328.854 163.789C328.854 189.661 322.745 213.018 310.528 233.859C298.67 254.341 282.32 270.691 261.479 282.908C240.997 294.766 217.64 300.695 191.409 300.695ZM195.721 262.965C216.562 262.965 235.068 258.114 251.238 248.412C267.767 238.71 280.703 225.415 290.046 208.526C299.748 191.278 304.599 172.054 304.599 150.853C304.599 129.293 299.748 110.069 290.046 93.18C280.703 76.2913 267.767 62.996 251.238 53.294C235.068 43.2327 216.562 38.202 195.721 38.202C175.239 38.202 156.733 43.2327 140.204 53.294C123.675 62.996 110.559 76.2913 100.857 93.18C91.155 110.069 86.304 129.293 86.304 150.853C86.304 172.054 91.155 191.278 100.857 208.526C110.559 225.415 123.675 238.71 140.204 248.412C156.733 258.114 175.239 262.965 195.721 262.965ZM324.542 298C318.433 298 313.403 296.203 309.45 292.61C305.497 288.657 303.521 283.627 303.521 277.518V185.349L313.762 142.768L345.563 150.853V277.518C345.563 283.627 343.587 288.657 339.634 292.61C335.681 296.203 330.651 298 324.542 298ZM471.558 300.695C443.171 300.695 417.838 294.227 395.559 281.291C373.64 267.996 356.212 250.029 343.276 227.391C330.7 204.753 324.411 179.24 324.411 150.853C324.411 122.106 330.52 96.414 342.737 73.776C354.955 51.138 371.664 33.351 392.864 20.415C414.065 7.11964 438.5 0.471975 466.168 0.471975C488.088 0.471975 508.21 4.78398 526.536 13.408C545.222 22.032 561.571 34.968 575.585 52.216C579.538 56.528 580.975 61.1993 579.897 66.23C578.819 70.9013 575.765 75.0337 570.734 78.627C566.782 81.5017 562.29 82.5797 557.259 81.861C552.588 80.783 548.456 78.088 544.862 73.776C524.021 50.06 497.79 38.202 466.168 38.202C446.046 38.202 428.259 43.053 412.807 52.755C397.715 62.457 385.857 75.7523 377.233 92.641C368.969 109.53 364.836 128.934 364.836 150.853C364.836 172.413 369.328 191.637 378.311 208.526C387.295 225.415 399.871 238.71 416.041 248.412C432.211 258.114 450.717 262.965 471.558 262.965C485.572 262.965 498.329 261.168 509.827 257.575C521.685 253.622 532.106 247.693 541.089 239.788C545.401 236.195 549.893 234.218 554.564 233.859C559.236 233.5 563.548 234.937 567.5 238.171C571.812 242.124 574.148 246.615 574.507 251.646C575.226 256.677 573.609 260.989 569.656 264.582C543.425 288.657 510.726 300.695 471.558 300.695Z" fill="#000B6C"/>
<path d="M178.409 300.695C150.74 300.695 125.946 294.227 104.027 281.291C82.1077 267.996 64.68 250.029 51.744 227.391C39.1673 204.753 32.879 179.24 32.879 150.853C32.879 122.106 39.347 96.414 52.283 73.776C65.5783 51.138 83.545 33.351 106.183 20.415C128.821 7.11964 154.334 0.471975 182.721 0.471975C211.108 0.471975 236.441 7.11964 258.72 20.415C281.358 33.351 299.145 51.138 312.081 73.776C325.376 96.414 332.204 122.106 332.563 150.853L315.854 163.789C315.854 189.661 309.745 213.018 297.528 233.859C285.67 254.341 269.32 270.691 248.479 282.908C227.997 294.766 204.64 300.695 178.409 300.695ZM182.721 262.965C203.562 262.965 222.068 258.114 238.238 248.412C254.767 238.71 267.703 225.415 277.046 208.526C286.748 191.278 291.599 172.054 291.599 150.853C291.599 129.293 286.748 110.069 277.046 93.18C267.703 76.2913 254.767 62.996 238.238 53.294C222.068 43.2327 203.562 38.202 182.721 38.202C162.239 38.202 143.733 43.2327 127.204 53.294C110.675 62.996 97.559 76.2913 87.857 93.18C78.155 110.069 73.304 129.293 73.304 150.853C73.304 172.054 78.155 191.278 87.857 208.526C97.559 225.415 110.675 238.71 127.204 248.412C143.733 258.114 162.239 262.965 182.721 262.965ZM311.542 298C305.433 298 300.403 296.203 296.45 292.61C292.497 288.657 290.521 283.627 290.521 277.518V185.349L300.762 142.768L332.563 150.853V277.518C332.563 283.627 330.587 288.657 326.634 292.61C322.681 296.203 317.651 298 311.542 298ZM458.558 300.695C430.171 300.695 404.838 294.227 382.559 281.291C360.64 267.996 343.212 250.029 330.276 227.391C317.7 204.753 311.411 179.24 311.411 150.853C311.411 122.106 317.52 96.414 329.737 73.776C341.955 51.138 358.664 33.351 379.864 20.415C401.065 7.11964 425.5 0.471975 453.168 0.471975C475.088 0.471975 495.21 4.78398 513.536 13.408C532.222 22.032 548.571 34.968 562.585 52.216C566.538 56.528 567.975 61.1993 566.897 66.23C565.819 70.9013 562.765 75.0337 557.734 78.627C553.782 81.5017 549.29 82.5797 544.259 81.861C539.588 80.783 535.456 78.088 531.862 73.776C511.021 50.06 484.79 38.202 453.168 38.202C433.046 38.202 415.259 43.053 399.807 52.755C384.715 62.457 372.857 75.7523 364.233 92.641C355.969 109.53 351.836 128.934 351.836 150.853C351.836 172.413 356.328 191.637 365.311 208.526C374.295 225.415 386.871 238.71 403.041 248.412C419.211 258.114 437.717 262.965 458.558 262.965C472.572 262.965 485.329 261.168 496.827 257.575C508.685 253.622 519.106 247.693 528.089 239.788C532.401 236.195 536.893 234.218 541.564 233.859C546.236 233.5 550.548 234.937 554.5 238.171C558.812 242.124 561.148 246.615 561.507 251.646C562.226 256.677 560.609 260.989 556.656 264.582C530.425 288.657 497.726 300.695 458.558 300.695Z" fill="#77C7DE"/>
</svg>
